<?xml version="1.0" encoding="UTF-8" standalone="no"?>
<!-- Created with Inkscape (http://www.inkscape.org/) -->

<svg
   width="1024"
   height="500"
   viewBox="0 0 270.93332 132.29166"
   version="1.1"
   id="svg1"
   inkscape:version="1.4.2 (ebf0e940d0, 2025-05-08)"
   sodipodi:docname="logo copy.svg"
   inkscape:export-filename="featureGraphic.png"
   inkscape:export-xdpi="96"
   inkscape:export-ydpi="96"
   xml:space="preserve"
   xmlns:inkscape="http://www.inkscape.org/namespaces/inkscape"
   xmlns:sodipodi="http://sodipodi.sourceforge.net/DTD/sodipodi-0.dtd"
   xmlns:xlink="http://www.w3.org/1999/xlink"
   xmlns="http://www.w3.org/2000/svg"
   xmlns:svg="http://www.w3.org/2000/svg"><sodipodi:namedview
     id="namedview1"
     pagecolor="#f9f9f9"
     bordercolor="#000000"
     borderopacity="0.25"
     inkscape:showpageshadow="2"
     inkscape:pageopacity="0.0"
     inkscape:pagecheckerboard="0"
     inkscape:deskcolor="#141414"
     inkscape:document-units="px"
     showgrid="false"
     inkscape:zoom="0.35265967"
     inkscape:cx="-161.62891"
     inkscape:cy="526.00287"
     inkscape:window-width="2552"
     inkscape:window-height="1388"
     inkscape:window-x="0"
     inkscape:window-y="0"
     inkscape:window-maximized="0"
     inkscape:current-layer="layer1"
     showguides="false"><inkscape:grid
       id="grid1"
       units="px"
       originx="0"
       originy="0"
       spacingx="0.26458333"
       spacingy="0.26458333"
       empcolor="#0099e5"
       empopacity="0.30196078"
       color="#0099e5"
       opacity="0.14901961"
       empspacing="4"
       dotted="false"
       gridanglex="30"
       gridanglez="30"
       visible="false" /></sodipodi:namedview><defs
     id="defs1"><linearGradient
       id="linearGradient17"
       inkscape:collect="always"><stop
         style="stop-color:#241f31;stop-opacity:0;"
         offset="0.55364585"
         id="stop16" /><stop
         style="stop-color:#18121c;stop-opacity:1;"
         offset="0.74098623"
         id="stop17" /></linearGradient><linearGradient
       id="linearGradient14"
       inkscape:collect="always"><stop
         style="stop-color:#241f31;stop-opacity:1;"
         offset="0"
         id="stop14" /><stop
         style="stop-color:#18121c;stop-opacity:1;"
         offset="1"
         id="stop15" /></linearGradient><linearGradient
       id="linearGradient28"
       inkscape:collect="always"><stop
         style="stop-color:#01d3ef;stop-opacity:1;"
         offset="0"
         id="stop28" /><stop
         style="stop-color:#31ed8e;stop-opacity:1;"
         offset="1"
         id="stop29" /></linearGradient><inkscape:path-effect
       effect="fillet_chamfer"
       id="path-effect3"
       is_visible="true"
       lpeversion="1"
       nodesatellites_param="F,0,0,1,0,0,0,1 @ F,0,0,1,0,0,0,1 | F,0,0,1,0,0,0,1 @ F,0,0,1,0,0,0,1 @ F,0,0,1,0,0,0,1"
       radius="0"
       unit="px"
       method="auto"
       mode="F"
       chamfer_steps="1"
       flexible="false"
       use_knot_distance="true"
       apply_no_radius="true"
       apply_with_radius="true"
       only_selected="false"
       hide_knots="false" /><linearGradient
       inkscape:collect="always"
       xlink:href="#linearGradient28"
       id="linearGradient90"
       gradientUnits="userSpaceOnUse"
       x1="-28.166809"
       y1="9.1135406"
       x2="-17.612644"
       y2="9.1135406" /><linearGradient
       inkscape:collect="always"
       xlink:href="#linearGradient28"
       id="linearGradient91"
       gradientUnits="userSpaceOnUse"
       x1="-28.166809"
       y1="9.1135406"
       x2="-17.612644"
       y2="9.1135406" /><linearGradient
       inkscape:collect="always"
       xlink:href="#linearGradient28"
       id="linearGradient92"
       gradientUnits="userSpaceOnUse"
       x1="-28.166809"
       y1="9.1135406"
       x2="-17.612644"
       y2="9.1135406" /><linearGradient
       inkscape:collect="always"
       xlink:href="#linearGradient28"
       id="linearGradient93"
       gradientUnits="userSpaceOnUse"
       x1="-28.166809"
       y1="9.1135406"
       x2="-17.612644"
       y2="9.1135406" /><linearGradient
       inkscape:collect="always"
       xlink:href="#linearGradient28"
       id="linearGradient94"
       gradientUnits="userSpaceOnUse"
       x1="-28.166809"
       y1="9.1135406"
       x2="-17.612644"
       y2="9.1135406" /><linearGradient
       inkscape:collect="always"
       xlink:href="#linearGradient28"
       id="linearGradient95"
       gradientUnits="userSpaceOnUse"
       x1="-28.166809"
       y1="9.1135406"
       x2="-17.612644"
       y2="9.1135406" /><linearGradient
       inkscape:collect="always"
       xlink:href="#linearGradient28"
       id="linearGradient96"
       gradientUnits="userSpaceOnUse"
       x1="-28.166809"
       y1="9.1135406"
       x2="-17.612644"
       y2="9.1135406" /><linearGradient
       inkscape:collect="always"
       xlink:href="#linearGradient28"
       id="linearGradient97"
       gradientUnits="userSpaceOnUse"
       x1="-28.166809"
       y1="9.1135406"
       x2="-17.612644"
       y2="9.1135406" /><linearGradient
       inkscape:collect="always"
       xlink:href="#linearGradient28"
       id="linearGradient98"
       gradientUnits="userSpaceOnUse"
       x1="-28.166809"
       y1="9.1135406"
       x2="-17.612644"
       y2="9.1135406" /><linearGradient
       inkscape:collect="always"
       xlink:href="#linearGradient14"
       id="linearGradient15"
       x1="135.46666"
       y1="-69.320839"
       x2="135.46666"
       y2="201.61246"
       gradientUnits="userSpaceOnUse" /><linearGradient
       inkscape:collect="always"
       xlink:href="#linearGradient17"
       id="linearGradient16"
       gradientUnits="userSpaceOnUse"
       x1="135.46666"
       y1="-69.320824"
       x2="135.46666"
       y2="201.61246"
       gradientTransform="translate(-6.531311e-6)" /></defs><g
     inkscape:groupmode="layer"
     id="layer5"
     inkscape:label="square backround"
     style="display:inline"><rect
       style="display:inline;fill:#241f31;fill-opacity:1;stroke:none;stroke-width:0.79375;stroke-linecap:round;stroke-linejoin:round;stroke-miterlimit:4;stroke-dasharray:none;stroke-opacity:1"
       id="rect105"
       width="19.049999"
       height="19.049999"
       x="0"
       y="0"
       ry="0"
       inkscape:export-filename="logo_background.png"
       inkscape:export-xdpi="1365.3334"
       inkscape:export-ydpi="1365.3334" /><rect
       style="display:inline;fill:url(#linearGradient15);stroke:none;stroke-width:4.40981;stroke-dasharray:none"
       id="rect11"
       width="270.93332"
       height="132.29166"
       x="0"
       y="0"
       ry="0" /></g><g
     inkscape:label="Layer 1"
     inkscape:groupmode="layer"
     id="layer1"
     style="display:inline"><rect
       style="display:none;fill:#241f31;fill-opacity:1;stroke:none;stroke-width:0.500062;stroke-dasharray:none;stroke-opacity:1"
       id="rect2"
       width="14.816666"
       height="14.816666"
       x="2.1166666"
       y="2.1166666"
       ry="2.1100814" /><g
       id="g28-6-1-7"
       style="display:inline;stroke:url(#linearGradient98)"
       transform="matrix(10.538474,0,0,10.538474,374.30817,-32.31603)"><path
         d="m -19.185561,10.701041 c -0.793747,0 -1.322883,-0.529166 -1.322883,-1.3229161"
         style="display:inline;fill:none;fill-opacity:1;stroke:url(#linearGradient90);stroke-width:0.499999;stroke-linecap:round;stroke-linejoin:round;stroke-miterlimit:4;stroke-dasharray:none;stroke-opacity:1"
         id="path1-50-6-2-6-4"
         sodipodi:nodetypes="cc" /><path
         d="M -26.593894,7.5260413 V 6.9968746 l 0.529166,-0.5291665 1.587501,-5e-7 0.529166,-0.5291666 h 2.116667 l 0.529166,0.5291667 1.5875,1e-7 0.529167,0.5291666 V 7.526041"
         style="display:inline;fill:none;fill-opacity:1;stroke:url(#linearGradient91);stroke-width:0.499999;stroke-linecap:round;stroke-linejoin:round;stroke-miterlimit:4;stroke-dasharray:none;stroke-opacity:1"
         id="path1-5-2-5-6-9"
         sodipodi:nodetypes="cccccccccc" /><path
         d="m -26.593893,11.759374 0.529166,0.529167 h 6.349999 l 0.529167,-0.529167"
         style="display:inline;fill:none;fill-opacity:1;stroke:url(#linearGradient92);stroke-width:0.499999;stroke-linecap:round;stroke-linejoin:round;stroke-miterlimit:4;stroke-dasharray:none;stroke-opacity:1"
         id="path1-2-61-4-2-1"
         sodipodi:nodetypes="cccc" /><path
         d="m -21.566811,9.3781245 c 0,0.7519675 -0.577458,1.3229165 -1.322916,1.3229165 -0.74546,0 -1.322917,-0.570948 -1.322917,-1.3229169 0,-0.751968 0.577456,-1.3229165 1.322916,-1.3229165 0.745458,1e-6 1.322917,0.5709489 1.322917,1.3229169 z"
         style="display:inline;fill:none;fill-opacity:1;stroke:url(#linearGradient93);stroke-width:0.499999;stroke-linecap:round;stroke-linejoin:round;stroke-miterlimit:4;stroke-dasharray:none;stroke-opacity:1"
         id="path1-7-8-4-1-7"
         sodipodi:nodetypes="sssss" /><path
         d="m -26.593894,10.701041 -3e-6,-1.3229167 c -0.793747,0 -1.322914,-0.5291663 -1.322914,-1.3229162"
         style="display:inline;fill:none;fill-opacity:1;stroke:url(#linearGradient94);stroke-width:0.499999;stroke-linecap:round;stroke-linejoin:round;stroke-miterlimit:4;stroke-dasharray:none;stroke-opacity:1"
         id="path1-3-7-9-9-0"
         sodipodi:nodetypes="ccc" /><path
         d="m -19.185561,10.701041 c 0.79375,0 1.322917,-0.529166 1.322917,-1.3229162 V 8.0552082"
         style="display:inline;fill:none;fill-opacity:1;stroke:url(#linearGradient95);stroke-width:0.499999;stroke-linecap:round;stroke-linejoin:round;stroke-miterlimit:4;stroke-dasharray:none;stroke-opacity:1"
         id="path1-22-9-9-6-6"
         sodipodi:nodetypes="csc" /><path
         d="m -26.593894,9.3781245 c 0.79375,0 1.322916,-0.5291662 1.322916,-1.3229161"
         style="display:inline;fill:none;fill-opacity:1;stroke:url(#linearGradient96);stroke-width:0.499999;stroke-linecap:round;stroke-linejoin:round;stroke-miterlimit:4;stroke-dasharray:none;stroke-opacity:1"
         id="path1-4-20-3-4-0" /><path
         d="M -20.508478,8.3197912 V 8.0552079"
         style="display:inline;fill:none;fill-opacity:1;stroke:url(#linearGradient97);stroke-width:0.499999;stroke-linecap:round;stroke-linejoin:round;stroke-miterlimit:4;stroke-dasharray:none;stroke-opacity:1"
         id="path1-0-2-6-8-8"
         sodipodi:nodetypes="cc" /></g><g
       style="fill:#72dcbb;fill-opacity:1"
       id="g5"
       transform="matrix(0.02662378,0.00722327,-0.00722327,0.02662378,191.51842,75.671614)"><path
         d="m 1918.0498,-837.45538 46,46 q 6,6 14,6 8,0 14,-6 l 46,-46 18,18 q 9,9 21,9 12,0 21,-9 9,-9 9,-21 0,-12 -9,-21 l -46,-46 q -6,-6 -14,-6 -8,0 -14,6 l -46,46 -46,-46 q -6,-6 -14,-6 -8,0 -14,6 l -46,46 -46,-46 q -6,-6 -14,-6 -8,0 -14,6 l -46,46 q -9,9 -9,21 0,12 9,21 9,9 21,9 12,0 21,-9 l 18,-18 46,46 q 6,6 14,6 8,0 14,-6 z m -141,-222.00002 -52,38 q -10,8 -12.5,20 -2.5,12.00002 5.5,22.00002 8,10 20,12.5 12,2.5 22,-5.5 l 97,-71.00002 q 8,-6 8,-16 0,-10 -8,-16 l -97,-71 q -10,-8 -22,-5.5 -12,2.5 -20,12.5 -8,10 -6,22 2,12 13,20 z m 282,0 52,-38 q 10,-8 12.5,-20 2.5,-12 -5.5,-22 -8,-10 -20,-12.5 -12,-2.5 -22,5.5 l -97,71 q -8,6 -8,16 0,10 8,16 l 97,71.00002 q 10,8 22,5.5 12,-2.5 20,-12.5 8,-10 6,-22.00002 -2,-12 -13,-20 z m -141,480.00002 q -83,0 -156,-31.5 -73,-31.5 -127,-85.5 -54,-54 -85.5,-127 -31.5,-73 -31.5,-156 0,-83.00002 31.5,-156.00002 31.5,-73 85.5,-127 54,-54 127,-85.5 73,-31.5 156,-31.5 83,0 156,31.5 73,31.5 127,85.5 54,54 85.5,127 31.5,73 31.5,156.00002 0,83 -31.5,156 -31.5,73 -85.5,127 -54,54 -127,85.5 -73,31.5 -156,31.5 z m 0,-400 z m 0,320 q 134,0 227,-93 93,-93 93,-227 0,-134.00002 -93,-227.00002 -93,-93 -227,-93 -134,0 -227,93 -93,93 -93,227.00002 0,134 93,227 93,93 227,93 z"
         id="path1-26"
         style="fill:#72dcbb;fill-opacity:1" /></g><g
       style="fill:#34acba;fill-opacity:1"
       id="g6"
       transform="matrix(0.01487402,0,0,0.01487402,184.88223,64.418542)"><path
         d="m 2534.1504,719.04768 q 36.7195,-10.37585 55.1599,-43.34252 18.4405,-32.96667 8.0646,-69.68608 -10.3758,-36.7194 -43.3424,-55.1599 -32.9666,-18.44049 -69.6861,-8.06465 -36.7194,10.37584 -55.1599,43.34252 -18.4405,32.96667 -8.0646,69.68607 10.3757,36.71941 43.3425,55.15991 32.9666,18.44048 69.686,8.06465 z M 2122.8931,835.2571 q 36.7194,-10.37583 55.1599,-43.34252 18.4404,-32.96667 8.0646,-69.68607 -10.3757,-36.7194 -43.3425,-55.1599 -32.9666,-18.44049 -69.686,-8.06465 -36.7195,10.37583 -55.1599,43.34252 -18.4405,32.96667 -8.0647,69.68607 10.3759,36.7194 43.3425,55.1599 32.9666,18.44049 69.6861,8.06465 z m 148.1449,243.628 264.3797,-74.706 q 19.094,-5.39548 28.0509,-21.40786 8.9569,-16.01239 3.5613,-35.10647 -5.3955,-19.09409 -21.4077,-28.0509 -16.0125,-8.95681 -35.1065,-3.56137 l -264.3797,74.70605 q -19.0942,5.39544 -28.0509,21.40785 -8.9569,16.0124 -3.5615,35.1064 5.3955,19.0941 21.4079,28.051 16.0123,8.9568 35.1065,3.5613 z m 240.0986,344.5288 q -121.9085,34.4478 -242.2026,18.4788 -120.2943,-15.969 -222.02,-72.8711 -101.7258,-56.9021 -178.2896,-151.0492 -76.564,-94.1471 -111.0118,-216.0555 -34.4477,-121.90842 -18.4788,-242.20264 15.9691,-120.29423 72.8711,-222.01996 56.9022,-101.72573 151.0493,-178.28963 94.147,-76.56391 216.0554,-111.0117 121.9085,-34.4478 242.2026,-18.47881 120.2943,15.96899 222.02,72.87109 101.7258,56.90209 178.2896,151.0492 76.564,94.1471 111.0118,216.05552 34.4478,121.90842 18.4788,242.20264 -15.9691,120.29419 -72.8711,222.01999 -56.9022,101.7257 -151.0493,178.2896 -94.1469,76.5639 -216.0554,111.0117 z M 2345.1231,835.90344 Z m 132.8108,470.00836 q 196.8159,-55.6145 294.814,-230.8088 97.9981,-175.19432 42.3835,-372.01034 -55.6144,-196.81601 -230.8087,-294.81406 -175.1944,-97.99806 -372.0103,-42.38354 -196.816,55.61451 -294.8141,230.80882 -97.9981,175.19431 -42.3835,372.01032 55.6144,196.816 230.8087,294.8141 175.1944,97.998 372.0104,42.3835 z"
         id="path1-9"
         style="fill:#34acba;fill-opacity:1;stroke-width:1.52629" /></g><g
       style="fill:#ffe07e;fill-opacity:1"
       id="g7"
       transform="matrix(0.04575062,0,0,0.04575062,229.93339,135.119)"><path
         d="m 418.36566,-554.24216 q 63.7511,-17.08206 96.98512,-74.64507 33.23402,-57.56301 16.15196,-121.31411 l -10.35276,-38.63703 q -4.39992,-16.42074 -18.48449,-24.55247 -14.08457,-8.13173 -30.50531,-3.73181 l -231.82219,62.11658 q -16.42074,4.39992 -24.55247,18.48449 -8.13173,14.08456 -3.73181,30.5053 l 10.35277,38.63703 q 17.08205,63.75111 74.64506,96.98513 57.56301,33.23402 121.31412,16.15196 z m -15.52915,-57.95555 q -40.56888,10.8704 -76.08648,-9.6357 -35.5176,-20.50609 -46.388,-61.07498 l -5.17638,-19.31852 193.18516,-51.7638 5.17638,19.31851 q 10.8704,40.56889 -9.6357,76.08649 -20.50609,35.5176 -61.07498,46.388 z M 169.25566,-943.01486 q -32.84148,8.79985 -52.26153,36.77951 -19.420052,27.97967 -24.660805,62.51276 -1.982619,11.91928 6.884089,19.89621 8.866706,7.97694 21.234276,7.76889 11.40164,0.0508 20.60332,-8.10884 9.20168,-8.1596 11.1843,-20.07888 3.39683,-14.36877 11.20968,-25.7797 7.81285,-11.41093 21.33581,-15.0344 13.52296,-3.62347 26.12397,2.83523 12.601,6.45869 22.72713,17.204 7.67664,9.33109 19.59592,11.31371 11.91927,1.98262 21.768,-3.76217 10.81465,-6.00361 14.50498,-17.34519 3.69033,-11.34158 -3.98631,-20.67267 -21.80517,-27.28616 -52.61326,-41.80723 -30.80809,-14.52108 -63.64957,-5.72123 z m 270.45923,-72.46934 q -32.84148,8.7999 -52.26153,36.77952 -19.42005,27.97966 -24.6608,62.51276 -1.98262,11.91928 6.88409,19.89621 8.8667,7.97693 21.23427,7.76888 11.40164,0.0508 20.60332,-8.10883 9.20168,-8.1596 11.1843,-20.07888 3.39683,-14.36877 11.20968,-25.7797 7.81285,-11.41094 21.33581,-15.0344 13.52297,-3.62347 26.12397,2.83523 12.601,6.45869 22.72713,17.20399 7.67664,9.33109 19.59592,11.31371 11.91928,1.98262 21.768,-3.76216 10.81466,-6.00361 14.50498,-17.34519 3.69033,-11.34158 -3.98631,-20.67267 -21.80517,-27.28616 -52.61326,-41.80727 -30.80809,-14.521 -63.64957,-5.7212 z m 20.06181,615.79017 q -80.17184,21.48198 -158.83723,9.94911 -78.66538,-11.53288 -144.8016,-49.71664 -66.136221,-38.18377 -115.456675,-100.54355 -49.3204537,-62.35979 -70.802434,-142.53163 -21.481981,-80.17185 -9.949108,-158.83723 11.532863,-78.66543 49.7166291,-144.80165 38.1837609,-66.13618 100.5435479,-115.45668 62.35978,-49.3204 142.53163,-70.8024 80.17184,-21.482 158.83723,-9.9491 78.66538,11.5328 144.8016,49.7166 66.13623,38.1838 115.45669,100.5436 49.32046,62.35978 70.80244,142.53162 21.48198,80.17185 9.9491,158.83723 -11.53287,78.66539 -49.71664,144.80161 -38.18376,66.13622 -100.54355,115.45668 -62.35978,49.32045 -142.53163,70.80243 z M 356.24909,-786.06436 Z m 82.82209,309.09626 q 129.43406,-34.68175 195.19499,-148.58302 65.76093,-113.90127 31.07918,-243.33533 -34.68175,-129.43407 -148.58304,-195.19505 -113.90127,-65.7609 -243.33533,-31.0792 -129.43406,34.6818 -195.194991,148.58306 -65.760914,113.90131 -31.079162,243.33537 34.681752,129.43406 148.583023,195.195 113.90127,65.76093 243.33533,31.07917 z"
         id="path1-37"
         style="fill:#ffe07e;fill-opacity:1" /></g><g
       style="fill:#34acba;fill-opacity:1"
       id="g8"
       transform="matrix(0.04233308,-0.00864525,0.00864525,0.04233308,48.153651,130.39393)"><path
         d="m 273.94925,-230.87274 q 58,0 107,-28 49,-28 79,-76 6,-12 -1,-24 -7,-12 -21,-12 h -328 q -14.000002,0 -21.000002,12 -7,12 -1,24 30.000002,48 79.500002,76 49.5,28 106.5,28 z m -124,-302 21,21 q 9,9 21,9 12,0 21,-9 9,-9 8.5,-21 -0.5,-12 -8.5,-21 l -35,-36 q -12,-12 -28.5,-12 -16.5,0 -28.5,12 l -36.000002,36 q -9,9 -9,21 0,12 9,21 8,8 20.500002,8.5 12.5,0.5 21.5,-7.5 z m 248,0 23,22 q 9,8 21,8 12,0 21,-9 9,-9 9,-21 0,-12 -9,-21 l -36,-36 q -12,-12 -28.5,-12 -16.5,0 -28.5,12 l -36,36 q -8,9 -8,21 0,12 9,21 9,9 21,9 12,0 21,-9 z m -124,481.999998 q -83,0 -156,-31.5 -73.000002,-31.499998 -127.0000022,-85.499998 -53.9999998,-54 -85.4999998,-127 -31.499998,-73 -31.499998,-156 0,-83 31.499998,-156 31.5,-73 85.4999998,-127 54.0000002,-54 127.0000022,-85.5 73,-31.5 156,-31.5 83,0 156,31.5 73,31.5 127,85.5 54,54 85.5,127 31.5,73 31.5,156 0,83 -31.5,156 -31.5,73 -85.5,127 -54,54 -127,85.499998 -73,31.5 -156,31.5 z m 0,-399.999998 z m 0,320 q 134,0 227,-93 93,-93 93,-227 0,-134 -93,-227 -93,-93 -227,-93 -134,0 -227.000002,93 -93,93 -93,227 0,134 93,227 93.000002,93 227.000002,93 z"
         id="path1-28"
         style="fill:#34acba;fill-opacity:1" /></g><g
       style="fill:#72dcbb;fill-opacity:1"
       id="g9"
       transform="matrix(0.03561152,0.00835707,-0.00835707,0.03561152,-0.68236025,106.87001)"><path
         d="m 480,-260 q 34,0 64,-12.5 30,-12.5 56,-35.5 9,-8 9,-21 0,-13 -9,-21 -9,-8 -21.5,-8 -12.5,0 -22.5,8 -17,13 -36,21 -19,8 -40,8 -21,0 -40,-8 -19,-8 -36,-21 -10,-8 -22.5,-8 -12.5,0 -21.5,8 -9,8 -9,21 0,13 9,21 26,22 56,35 30,13 64,13 z m 0,180 Q 397,-80 324,-111.5 251,-143 197,-197 143,-251 111.5,-324 80,-397 80,-480 q 0,-83 31.5,-156 31.5,-73 85.5,-127 54,-54 127,-85.5 73,-31.5 156,-31.5 83,0 156,31.5 73,31.5 127,85.5 54,54 85.5,127 31.5,73 31.5,156 0,83 -31.5,156 -31.5,73 -85.5,127 -54,54 -127,85.5 Q 563,-80 480,-80 Z m 0,-400 z m 0,320 q 134,0 227,-93 93,-93 93,-227 0,-134 -93,-227 -93,-93 -227,-93 -134,0 -227,93 -93,93 -93,227 0,134 93,227 93,93 227,93 z M 340,-480 q 32,0 57.5,-20 25.5,-20 39.5,-49 5,-13 0.5,-25.5 Q 433,-587 420,-590 q -11,-3 -22,2.5 -11,5.5 -16,16.5 -7,13 -17.5,22 -10.5,9 -24.5,9 -14,0 -25,-9.5 -11,-9.5 -17,-22.5 -5,-11 -16,-16 -11,-5 -22,-2 -13,3 -17.5,15.5 -4.5,12.5 1.5,25.5 12,30 38,49.5 26,19.5 58,19.5 z m 280,0 q 32,0 57.5,-20 25.5,-20 39.5,-49 5,-13 0.5,-25.5 Q 713,-587 700,-590 q -11,-3 -22,2.5 -11,5.5 -16,16.5 -7,13 -17.5,22 -10.5,9 -24.5,9 -14,0 -25,-9.5 -11,-9.5 -17,-22.5 -5,-11 -16,-16 -11,-5 -22,-2 -13,3 -17.5,15.5 -4.5,12.5 1.5,25.5 12,30 38,49.5 26,19.5 58,19.5 z"
         id="path1-61"
         style="fill:#72dcbb;fill-opacity:1" /></g><g
       style="fill:#ffe07e;fill-opacity:1"
       id="g11"
       transform="matrix(0.02720016,-0.00181051,0.00181051,0.02720016,14.676779,89.636507)"><path
         d="m 784,-927.96347 q 25,0 42.5,-17.5 17.5,-17.5 17.5,-42.5 0,-25.00003 -17.5,-42.50003 -17.5,-17.5 -42.5,-17.5 -25,0 -42.5,17.5 -17.5,17.5 -17.5,42.50003 0,25 17.5,42.5 17.5,17.5 42.5,17.5 z m -280,0 q 25,0 42.5,-17.5 17.5,-17.5 17.5,-42.5 0,-25.00003 -17.5,-42.50003 -17.5,-17.5 -42.5,-17.5 -25,0 -42.5,17.5 -17.5,17.5 -17.5,42.50003 0,25 17.5,42.5 17.5,17.5 42.5,17.5 z m 140,440 q -83,0 -156,-31.5 -73,-31.5 -127,-85.5 -54,-54 -85.5,-127 -31.5,-73 -31.5,-156 0,-83 31.5,-156.00003 31.5,-73 85.5,-127 54,-54 127,-85.5 73,-31.5 156,-31.5 83,0 156,31.5 73,31.5 127,85.5 54,54 85.5,127 31.5,73.00003 31.5,156.00003 0,83 -31.5,156 -31.5,73 -85.5,127 -54,54 -127,85.5 -73,31.5 -156,31.5 z m 0,-400 z m 0,320 q 134,0 227,-93 93,-93 93,-227 0,-134.00003 -93,-227.00003 -93,-93 -227,-93 -134,0 -227,93 -93,93 -93,227.00003 0,134 93,227 93,93 227,93 z m 0,-100 q 58,0 107,-28 49,-28 79,-76 6,-12 -1,-24 -7,-12 -21,-12 H 480 q -14,0 -21,12 -7,12 -1,24 30,48 79.5,76 49.5,28 106.5,28 z"
         id="path1-8"
         style="fill:#ffe07e;fill-opacity:1" /></g><g
       style="display:inline;fill:#ee6a7c;fill-opacity:1"
       id="g14"
       transform="matrix(0.0218212,0,0,0.0218212,42.364372,89.183074)"><path
         d="m 348.77824,-102.13647 q -78.40669,-27.22851 -137.03307,-80.93324 -58.62638,-53.70472 -91.92302,-122.43124 -33.296635,-68.72651 -39.105417,-148.02032 -5.808781,-79.29381 21.419737,-157.70049 27.22851,-78.40669 80.93324,-137.03307 53.70472,-58.62638 122.43124,-91.92302 68.72651,-33.29664 148.02032,-39.10542 79.29381,-5.80878 157.70049,21.41974 78.40669,27.22851 137.03307,80.93324 58.62638,53.70472 91.92302,122.43124 33.29664,68.72651 39.10542,148.02032 5.80878,79.29381 -21.41974,157.70049 -27.22851,78.40669 -80.93324,137.03307 -53.70472,58.62638 -122.43124,91.92302 -68.72651,33.296635 -148.02032,39.105417 -79.29381,5.808781 -157.70049,-21.419737 z m 26.24435,-75.5727 q 125.63962,43.63123 244.63831,-14.02128 118.99869,-57.65251 162.62993,-183.29214 43.63123,-125.63962 -14.02128,-244.63831 -57.65251,-118.99869 -183.29214,-162.62993 -125.63962,-43.63123 -244.63831,14.02128 -118.99869,57.65251 -162.62993,183.29214 -43.63123,125.63962 14.02128,244.63831 57.65251,118.99869 183.29214,162.62993 z m 237.22965,-256.36321 q 23.61647,8.20136 45.88895,-2.58922 22.27248,-10.79058 30.47384,-34.40705 4.92082,-14.16988 2.73694,-29.21916 -2.18388,-15.04927 -10.89535,-26.54319 l 10.1422,-1.77081 q 9.19755,-2.09886 13.54727,-8.52769 4.34973,-6.42883 2.25087,-15.62638 -2.09886,-9.19754 -8.05536,-13.38324 -5.95651,-4.18569 -15.15405,-2.08684 l -119.8171,21.90577 q -8.86949,1.1542 -12.74688,7.74706 -3.8774,6.59286 -2.7232,15.46234 2.09886,9.19755 8.36366,14.0196 6.26481,4.82206 15.46235,2.7232 l 2.21737,-0.28855 q -5.98398,23.32792 4.82634,44.01939 10.81033,20.69146 33.48215,28.56477 z m -264.50448,-91.85524 q 22.67182,7.87331 43.97989,-1.66431 21.30807,-9.53761 31.07069,-31.55332 l 1.56126,1.60077 q 5.917,7.34773 13.65805,7.91882 7.74105,0.57109 15.08878,-5.34591 6.40307,-6.24505 6.97416,-13.9861 0.57109,-7.74105 -5.34591,-15.08878 l -79.50591,-91.12524 q -6.24505,-6.40307 -13.51377,-6.81014 -7.26872,-0.40706 -14.61645,5.50994 -7.34773,5.917 -7.75479,13.18572 -0.40707,7.26872 5.50993,14.61645 l 6.86166,7.67578 q -13.96034,3.62062 -25.00169,14.07713 -11.04135,10.45652 -15.96216,24.6264 -8.20136,23.61647 2.58922,45.88895 10.79057,22.27248 34.40704,30.47384 z m 119.13006,83.71397 q -67.07077,-23.29186 -133.00883,1.97518 -65.93805,25.26704 -109.3563,83.2313 l 379.75285,131.87787 q 1.85326,-72.39865 -34.23184,-133.09557 -36.0851,-60.69691 -103.15588,-83.98878 z M 480,-480 Z"
         id="path1-5"
         style="fill:#ee6a7c;fill-opacity:1" /></g><path
       d="m 213.08773,109.44421 q 0.82785,0.12601 1.49556,-0.36528 0.66771,-0.49129 0.79373,-1.31914 0.12601,-0.82786 -0.36528,-1.49556 -0.49129,-0.66771 -1.31914,-0.79373 -0.82786,-0.12602 -1.49557,0.36527 -0.6677,0.49129 -0.79372,1.31915 -0.12602,0.82785 0.36527,1.49556 0.49129,0.66771 1.31915,0.79373 z m -9.272,-1.41137 q 0.82786,0.12601 1.49558,-0.36528 0.6677,-0.49128 0.79372,-1.31914 0.12601,-0.82785 -0.36527,-1.49556 -0.49129,-0.66771 -1.31915,-0.79373 -0.82786,-0.12601 -1.49557,0.36528 -0.66771,0.49129 -0.79372,1.31914 -0.12602,0.82785 0.36527,1.49556 0.49129,0.66771 1.31914,0.79373 z m 2.41814,15.27595 q -2.74848,-0.41837 -5.00705,-1.82943 -2.25856,-1.41106 -3.77453,-3.47142 -1.51598,-2.06036 -2.19112,-4.63648 -0.67513,-2.57612 -0.25676,-5.32461 0.41837,-2.74847 1.82944,-5.00703 1.41106,-2.25857 3.47141,-3.774556 2.06036,-1.51597 4.63649,-2.19111 2.57611,-0.67513 5.3246,-0.25676 2.74848,0.41837 5.00704,1.82943 2.25856,1.411066 3.77454,3.471426 1.51597,2.06037 2.19111,4.63648 0.67513,2.57612 0.25677,5.3246 -0.41837,2.74848 -1.82944,5.00705 -1.41106,2.25856 -3.47142,3.77453 -2.06037,1.51598 -4.63648,2.19112 -2.57611,0.67513 -5.3246,0.25676 z m 2.01624,-13.2457 z m -1.613,10.59656 q 4.43731,0.67544 7.98572,-1.93541 3.5484,-2.61085 4.22384,-7.04815 0.67543,-4.43731 -1.93541,-7.98572 -2.61086,-3.5484 -7.04817,-4.223844 -4.4373,-0.675432 -7.9857,1.935414 -3.5484,2.61086 -4.22384,7.04817 -0.67544,4.43731 1.93541,7.9857 2.61085,3.5484 7.04815,4.22384 z m 1.31057,-8.60971 q -1.88752,-0.2873 -3.68437,0.38786 -1.79684,0.67517 -3.03726,2.14655 -0.25918,0.36713 -0.0853,0.78323 0.17384,0.4161 0.63744,0.48667 l 10.89458,1.65835 q 0.4636,0.0706 0.75337,-0.27496 0.28976,-0.34553 0.15157,-0.77315 -0.74643,-1.77381 -2.24446,-2.95052 -1.49802,-1.17671 -3.38552,-1.46403 z"
       id="path1-1"
       style="display:inline;fill:#ee6a7c;fill-opacity:1;stroke-width:0.0334956" /><rect
       style="display:inline;fill:url(#linearGradient16);stroke:none;stroke-width:4.40981;stroke-dasharray:none"
       id="rect11-9"
       width="270.93332"
       height="132.29166"
       x="-6.6757202e-06"
       y="7.6293945e-06"
       ry="0" /></g></svg>
