<?xml version="1.0" encoding="UTF-8" standalone="no"?>
<svg
   height="24px"
   viewBox="0 -960 960 960"
   width="24px"
   fill="#1f1f1f"
   version="1.1"
   id="svg1"
   sodipodi:docname="event_upcoming_24dp_1F1F1F_FILL0_wght400_GRAD0_opsz24.svg"
   inkscape:version="1.4.2 (ebf0e940d0, 2025-05-08)"
   xmlns:inkscape="http://www.inkscape.org/namespaces/inkscape"
   xmlns:sodipodi="http://sodipodi.sourceforge.net/DTD/sodipodi-0.dtd"
   xmlns="http://www.w3.org/2000/svg"
   xmlns:svg="http://www.w3.org/2000/svg">
  <defs
     id="defs1" />
  <sodipodi:namedview
     id="namedview1"
     pagecolor="#ffffff"
     bordercolor="#000000"
     borderopacity="0.25"
     inkscape:showpageshadow="2"
     inkscape:pageopacity="0.0"
     inkscape:pagecheckerboard="0"
     inkscape:deskcolor="#d1d1d1"
     inkscape:zoom="33.291667"
     inkscape:cx="12.015019"
     inkscape:cy="14.628285"
     inkscape:window-width="1910"
     inkscape:window-height="999"
     inkscape:window-x="0"
     inkscape:window-y="0"
     inkscape:window-maximized="0"
     inkscape:current-layer="svg1" />
  <path
     d="M 760,-80 H 640 c -11.33333,0 -20.83333,-3.833333 -28.5,-11.5 -7.66667,-7.666667 -11.5,-17.16667 -11.5,-28.5 0,-11.33333 3.83333,-20.83333 11.5,-28.5 7.66667,-7.66667 17.16667,-11.5 28.5,-11.5 H 760 V -600 H 200 v 160 c 0,11.33333 -3.83333,20.83333 -11.5,28.5 -7.66667,7.66667 -17.16667,11.5 -28.5,11.5 -11.33333,0 -20.83333,-3.83333 -28.5,-11.5 -7.66667,-7.66667 -11.5,-17.16667 -11.5,-28.5 v -280 c 0,-22 7.83333,-40.83333 23.5,-56.5 15.66667,-15.66667 34.5,-23.5 56.5,-23.5 h 40 v -40 c 0,-11.33333 3.83333,-20.83333 11.5,-28.5 7.66667,-7.66667 17.16667,-11.5 28.5,-11.5 11.33333,0 20.83333,3.83333 28.5,11.5 7.66667,7.66667 11.5,17.16667 11.5,28.5 v 40 h 320 v -40 c 0,-11.33333 3.83333,-20.83333 11.5,-28.5 7.66667,-7.66667 17.16667,-11.5 28.5,-11.5 11.33333,0 20.83333,3.83333 28.5,11.5 7.66667,7.66667 11.5,17.16667 11.5,28.5 v 40 h 40 c 22,0 40.83333,7.83333 56.5,23.5 15.66667,15.66667 23.5,34.5 23.5,56.5 v 560 c 0,22 -7.83333,40.83333 -23.5,56.5 C 800.83333,-87.833333 782,-80 760,-80 Z M 367,-160 H 80 c -11.333333,0 -20.833333,-3.83333 -28.5,-11.5 -7.666667,-7.66667 -11.5,-17.16667 -11.5,-28.5 0,-11.33333 3.833333,-20.83333 11.5,-28.5 7.666667,-7.66667 17.166667,-11.5 28.5,-11.5 h 287 l -75,-76 c -7.33333,-7.33333 -11.16667,-16.5 -11.5,-27.5 -0.33333,-11 3.5,-20.5 11.5,-28.5 7.33333,-7.33333 16.66667,-11 28,-11 11.33333,0 20.66667,3.66667 28,11 l 144,144 c 8,8 12,17.33333 12,28 0,10.66667 -4,20 -12,28 L 348,-28 c -7.33333,7.333333 -16.5,11.166667 -27.5,11.5 -11,0.333333 -20.5,-3.5 -28.5,-11.5 -7.33333,-7.333333 -11,-16.666667 -11,-28 0,-11.333333 3.66667,-20.666667 11,-28 z"
     id="path1"
     sodipodi:nodetypes="sssssscccsssssssscsssssccssssscsssssscsssssccssssssssssscc" />
</svg>
